<?xml version="1.0"?><svg width="1538.5" height="1870.4999999999998" xmlns="http://www.w3.org/2000/svg">
 <title>escudo</title>
 <defs>
  <linearGradient id="svg_5">
   <stop offset="0" stop-color="#bc9918"/>
   <stop offset="1" stop-opacity="0.996094" stop-color="#bc8907"/>
  </linearGradient>
  <radialGradient cy="0.238281" cx="0.351563" spreadMethod="pad" id="svg_6">
   <stop offset="0" stop-color="#7f7f7f"/>
   <stop offset="1" stop-opacity="0.996094" stop-color="#8e8e8e"/>
  </radialGradient>
  <radialGradient r="0.5" cy="0.925781" cx="0.992188" spreadMethod="pad" id="svg_7">
   <stop offset="0" stop-color="#7f7f7f"/>
   <stop offset="1" stop-opacity="0.992188" stop-color="#b7b5b5"/>
  </radialGradient>
  <radialGradient r="0.5" cy="0.507813" cx="0.484375" spreadMethod="pad" id="svg_8">
   <stop offset="0" stop-color="#7f7f7f"/>
   <stop offset="1" stop-opacity="0.992188" stop-color="#b7b5b5"/>
  </radialGradient>
  <linearGradient spreadMethod="reflect" id="svg_9">
   <stop offset="0" stop-color="#7f7f7f"/>
   <stop offset="0.539063" stop-opacity="0.992188" stop-color="#b7b5b5"/>
   <stop offset="0.773438" stop-opacity="0.988281" stop-color="#b7b5b5"/>
   <stop offset="1" stop-opacity="0.988281" stop-color="#707070"/>
   <stop offset="1" stop-opacity="0.992188" stop-color="#b7b5b5"/>
  </linearGradient>
 </defs>
 <g>
  <title>Layer 1</title>
  <path id="svg_1" fill="#ffff00" fill-rule="evenodd" stroke="#000000" stroke-width="2px" d="m794.509399,118.815002l5.577026,0l24.024963,12.078995q24.024048,12.07901 31.747009,15.828003q7.721985,3.748001 52.554016,24.365997q44.83197,20.617996 46.333984,20.826004q1.501038,0.207993 23.809998,9.787994q22.309021,9.580002 34.325012,14.162003q12.010071,4.582001 34.750061,12.494995q22.72998,7.914001 28.73999,9.997009q6.01001,2.082001 15.019897,4.998001q9.01001,2.916 23.160034,7.080994q14.160034,4.165009 36.040039,9.996002q21.880005,5.832001 42.469971,10.412994q20.599976,4.582001 26.599976,5.832001q6.01001,1.248993 38.180054,7.080017q32.179932,5.832001 40.329956,7.080994q8.150024,1.25 39.900024,6.247986q31.75,4.998016 32.180054,4.998016q0.429932,0 30.889893,5.832001q30.460083,5.830994 30.670044,6.039001l0.209961,0.208984l-1.279907,62.061005q-1.290039,62.062012 -6.440063,160.359985q-5.150024,98.299011 -8.150024,137.450989q-3,39.153015 -6.859985,67.059998q-3.859985,27.907043 -9.01001,52.89801q-5.149902,24.991028 -11.159912,50.39801q-6,25.406982 -10.720093,44.567017q-4.719971,19.159973 -11.159912,41.234985q-6.430054,22.075989 -7.720093,26.65802q-1.289917,4.580994 -3.859985,11.661987q-2.569946,7.080994 -6.01001,17.494019q-3.429932,10.412964 -10.719971,29.992981q-7.290039,19.569946 -12.01001,31.23999q-4.719971,11.660034 -11.589966,27.900024q-6.859985,16.25 -17.589966,39.150024q-10.720093,22.909912 -12.869995,26.659912q-2.140015,3.75 -15.660034,27.280029q-13.51001,23.540039 -16.300049,27.910034q-2.789917,4.369995 -13.299927,22.079956q-10.51001,17.700073 -13.72998,22.48999q-3.210083,4.790039 -9.860107,14.98999q-6.649902,10.210083 -10.72998,15.830078q-4.079956,5.619995 -9.439941,13.329956q-5.359985,7.700073 -10.290039,14.160034q-4.939941,6.459961 -7.72998,10.829956q-2.790039,4.369995 -8.150024,11.25q-5.359985,6.869995 -10.290039,13.73999q-4.939941,6.869995 -10.72998,14.160034q-5.789917,7.290039 -9.869995,12.5q-4.069946,5.209961 -17.369995,19.780029q-13.299927,14.579956 -31.319946,33.329956q-18.02002,18.73999 -31.75,32.070068q-13.72998,13.329956 -18.22998,16.869995q-4.51001,3.539917 -21.02002,17.909912q-16.52002,14.369995 -20.167053,17.48999q-3.646973,3.119995 -18.018982,15.410034q-14.372009,12.290039 -18.875977,15.829956q-4.505005,3.540039 -10.296997,8.330078q-5.791016,4.790039 -16.088013,13.119995q-10.296021,8.329956 -15.658997,12.290039q-5.362,3.949951 -10.296021,7.079956q-4.934021,3.119995 -18.018982,10.829956q-13.085022,7.700073 -17.160034,10.410034q-4.075989,2.709961 -9.223999,5.619995q-5.147949,2.920044 -10.724976,6.670044q-5.578003,3.75 -8.151978,5.409912q-2.574036,1.670044 -11.154053,5.830078q-8.579956,4.169922 -20.592957,9.579956q-12.012024,5.420044 -16.731018,7.079956l-4.718994,1.670044l-5.14801,-1.25q-5.148987,-1.25 -11.154968,-4.160034q-6.006042,-2.919922 -20.164001,-10q-14.157043,-7.079956 -16.302002,-8.75q-2.14502,-1.659912 -10.940002,-7.289917q-8.795044,-5.619995 -13.299011,-8.330078q-4.505005,-2.699951 -17.590027,-10.409912q-13.084961,-7.710083 -18.018982,-10.830078q-4.932983,-3.119995 -10.296021,-7.079956q-5.362976,-3.959961 -12.22699,-9.369995q-6.864014,-5.420044 -18.232971,-14.790039q-11.369019,-9.369995 -19.734985,-16.23999q-8.365051,-6.880005 -24.453003,-20.829956q-16.088013,-13.950073 -20.593018,-17.48999q-4.504028,-3.540039 -19.734009,-16.660034q-15.22998,-13.119995 -16.945984,-14.790039q-1.716003,-1.669922 -15.230042,-14.789917q-13.513947,-13.119995 -18.876953,-18.73999q-5.363007,-5.620117 -23.595978,-24.990112q-18.233002,-19.369995 -21.880005,-23.73999q-3.645996,-4.380005 -10.725006,-12.909912q-7.07901,-8.540039 -11.153992,-13.75q-4.076019,-5.210083 -8.151001,-10.830078q-4.076019,-5.619995 -8.581024,-11.659912q-4.503998,-6.040039 -8.151001,-10.830078q-3.646973,-4.789917 -6.220978,-8.539917q-2.574005,-3.75 -7.07901,-9.790039q-4.503998,-6.040039 -7.721985,-10.830078q-3.21701,-4.789917 -8.580017,-12.48999q-5.363007,-7.709961 -8.151001,-12.079956q-2.789001,-4.380005 -9.009979,-13.75q-6.220001,-9.369995 -8.151001,-12.910034q-1.930023,-3.539917 -10.725006,-17.909912q-8.795013,-14.369995 -11.584015,-18.73999q-2.787994,-4.380005 -13.942993,-23.950073q-11.153992,-19.579956 -16.730988,-29.579956q-5.577026,-9.98999 -9.868011,-18.73999q-4.290009,-8.75 -12.011993,-26.23999q-7.722015,-17.48999 -7.722015,-17.910034q0,-0.420044 -7.721985,-19.160034q-7.723022,-18.73999 -12.013016,-29.569946q-4.290009,-10.830017 -12.012009,-32.907043q-7.722,-22.075989 -15.444992,-47.067017q-7.722,-24.990967 -17.159988,-60.811951q-9.439011,-35.820007 -13.300018,-53.314026q-3.860992,-17.492981 -10.725006,-50.814026q-6.863998,-33.32196 -8.150986,-43.734985q-1.287003,-10.412964 -5.578003,-63.72699q-4.290009,-53.315002 -5.577011,-80.388977q-1.286987,-27.072998 -3.002991,-57.479004q-1.716003,-30.406006 -4.719009,-99.548004q-3.002991,-69.141998 -3.002991,-97.882019l0,-28.73999l2.787994,-1.458008q2.789001,-1.458008 15.229996,-3.540985q12.442001,-2.082001 34.322006,-5.414001q21.878998,-3.333008 66.497025,-10.830017q44.617004,-7.496979 63.923004,-10.829987q19.306,-3.332001 51.052979,-10.412994q31.747009,-7.080017 54.914001,-13.328003q23.166016,-6.248001 39.89801,-11.66301q16.730988,-5.414001 26.169983,-8.330002q9.437958,-2.916 18.017975,-5.830994q8.580994,-2.916 34.320984,-12.496002q25.741028,-9.580002 48.264038,-19.367996q22.52301,-9.78801 24.024963,-9.997009q1.501038,-0.207993 21.665039,-9.370987q20.164001,-9.164001 36.466003,-16.661011q16.302979,-7.496994 32.175964,-14.994995q15.874023,-7.496994 39.470032,-19.576004l23.594971,-12.078995l5.578003,0z"/>
  <path id="svg_2" fill="#ffff00" fill-rule="evenodd" stroke="#000000" stroke-width="2px" d="m772.906433,132.962997l5.578003,0l24.023987,12.07901q24.024963,12.078995 31.747009,15.827988q7.722961,3.749008 52.554993,24.365997q44.83197,20.618011 46.333008,20.826004q1.501953,0.209 23.810974,9.789001q22.307983,9.580002 34.320984,14.160995q12.012024,4.582001 34.746094,12.496002q22.739868,7.914001 28.749878,9.996002q6,2.083008 15.01001,4.998016q9.01001,2.915985 23.170044,7.080994q14.160034,4.164978 36.040039,9.996979q21.880005,5.831024 42.469971,10.413025q20.589966,4.580994 26.599976,5.830994q6.01001,1.248993 38.180054,7.080994q32.179932,5.830994 40.329956,7.080994q8.150024,1.248993 39.900024,6.248016q31.75,4.997986 32.169922,4.997986q0.430054,0 30.890015,5.830994q30.460083,5.831024 30.680054,6.040009l0.209961,0.208008l-1.280029,62.061981q-1.289917,62.061005 -6.439941,160.359009q-5.150024,98.299011 -8.150024,137.452026q-3,39.152954 -6.869995,67.05896q-3.859985,27.907043 -9,52.89801q-5.150024,24.991028 -11.160034,50.39801q-6.01001,25.40802 -10.719971,44.567017q-4.719971,19.159973 -11.160034,41.235962q-6.429932,22.075012 -7.719971,26.657043q-1.289917,4.58197 -3.859985,11.661987q-2.579956,7.080994 -6.01001,17.498962q-3.429932,10.410034 -10.719971,29.980042q-7.300049,19.579956 -12.02002,31.23999q-4.719971,11.670044 -11.579956,27.910034q-6.859985,16.23999 -17.590088,39.149902q-10.719971,22.910034 -12.869995,26.660034q-2.139893,3.75 -15.659912,27.280029q-13.51001,23.540039 -16.300049,27.910034q-2.790039,4.369995 -13.300049,22.069946q-10.509888,17.709961 -13.72998,22.5q-3.219971,4.790039 -9.869995,14.98999q-6.650024,10.210083 -10.719971,15.830078q-4.079956,5.619995 -9.439941,13.329956q-5.360107,7.699951 -10.300049,14.160034q-4.930054,6.459961 -7.719971,10.829956q-2.790039,4.369995 -8.150024,11.23999q-5.359985,6.880005 -10.300049,13.75q-4.929932,6.869995 -10.719971,14.160034q-5.790039,7.289917 -9.869995,12.5q-4.069946,5.199951 -17.369995,19.780029q-13.300049,14.579956 -31.319946,33.319946q-18.02002,18.75 -31.75,32.079956q-13.730042,13.320068 -18.230042,16.859985q-4.51001,3.540039 -21.026001,17.910034q-16.515991,14.369995 -20.163025,17.5q-3.646973,3.119995 -18.018982,15.410034q-14.372009,12.290039 -18.875977,15.829956q-4.505005,3.540039 -10.297058,8.330078q-5.790955,4.789917 -16.087952,13.119995q-10.296021,8.329956 -15.658997,12.289917q-5.363037,3.950073 -10.296021,7.080078q-4.934021,3.119995 -18.018982,10.829956q-13.085022,7.699951 -17.160034,10.410034q-4.075989,2.709961 -9.223999,5.619995q-5.14801,2.919922 -10.726013,6.669922q-5.576965,3.740112 -8.151001,5.410034q-2.573975,1.670044 -11.153992,5.830078q-8.579956,4.169922 -20.592957,9.579956q-12.012024,5.420044 -16.731018,7.079956l-4.720032,1.670044l-5.147949,-1.25q-5.14801,-1.25 -11.154053,-4.170044q-6.005981,-2.909912 -20.164001,-9.98999q-14.156982,-7.079956 -16.301941,-8.75q-2.14502,-1.669922 -10.940002,-7.289917q-8.795044,-5.620117 -13.300049,-8.330078q-4.503967,-2.709961 -17.588989,-10.410034q-13.084961,-7.709961 -18.018982,-10.829956q-4.934021,-3.130005 -10.296021,-7.079956q-5.362976,-3.960083 -12.22699,-9.369995q-6.864014,-5.420044 -18.232971,-14.790039q-11.369019,-9.369995 -19.735046,-16.23999q-8.365967,-6.880005 -24.453003,-20.829956q-16.087952,-13.950073 -20.592957,-17.490112q-4.505005,-3.539917 -19.734009,-16.659912q-15.22998,-13.130005 -16.947021,-14.790039q-1.716003,-1.670044 -15.22995,-14.790039q-13.514008,-13.119995 -18.876007,-18.73999q-5.363007,-5.619995 -23.596008,-24.98999q-18.233002,-19.369995 -21.880005,-23.73999q-3.645996,-4.380005 -10.724976,-12.919922q-7.07901,-8.530029 -11.154022,-13.740112q-4.075989,-5.209961 -8.151978,-10.829956q-4.075012,-5.619995 -8.580017,-11.660034q-4.505005,-6.039917 -8.151001,-10.829956q-3.647003,-4.790039 -6.221008,-8.540039q-2.573975,-3.75 -7.078979,-9.789917q-4.503998,-6.040039 -7.722015,-10.830078q-3.217987,-4.789917 -8.579987,-12.48999q-5.363007,-7.709961 -8.152008,-12.079956q-2.787994,-4.380005 -9.009003,-13.75q-6.221008,-9.369995 -8.151001,-12.910034q-1.931,-3.540039 -10.725983,-17.910034q-8.794006,-14.369995 -11.583008,-18.73999q-2.789001,-4.380005 -13.942993,-23.949951q-11.154022,-19.579956 -16.731018,-29.579956q-5.578003,-9.990112 -9.867981,-18.740112q-4.290009,-8.75 -12.012024,-26.23999q-7.722,-17.48999 -7.722,-17.909912q0,-0.420044 -7.723007,-19.160034q-7.722,-18.73999 -12.011993,-29.569946q-4.290009,-10.830078 -12.012009,-32.910034q-7.722992,-22.075012 -15.444992,-47.06604q-7.722,-24.990967 -17.160995,-60.812012q-9.438004,-35.819946 -13.299011,-53.312988q-3.860992,-17.493958 -10.724991,-50.815002q-6.865005,-33.32196 -8.152008,-43.734985q-1.287003,-10.413025 -5.576996,-63.72699q-4.289993,-53.315002 -5.576996,-80.388q-1.287003,-27.074036 -3.003006,-57.47998q-1.716003,-30.406006 -4.718994,-99.548035q-3.003006,-69.141998 -3.003006,-97.881989l0,-28.73999l2.78801,-1.458008q2.788986,-1.458008 15.229996,-3.540009q12.442001,-2.083008 34.320999,-5.415009q21.880005,-3.332001 66.498001,-10.829987q44.617004,-7.497009 63.923004,-10.82901q19.305023,-3.332001 51.052002,-10.412994q31.748016,-7.080994 54.914001,-13.32901q23.166992,-6.247986 39.899017,-11.661987q16.730988,-5.415009 26.169983,-8.330994q9.438019,-2.915009 18.018005,-5.831009q8.579987,-2.916 34.320953,-12.496002q25.741028,-9.578995 48.264038,-19.367996q22.522949,-9.787994 24.024963,-9.996002q1.501038,-0.207993 21.665039,-9.371994q20.162964,-9.16301 36.466003,-16.660995q16.302979,-7.497009 32.175964,-14.994003q15.874023,-7.498001 39.468994,-19.576996l23.596008,-12.07901l5.577026,0z"/>
  <path id="path2" fill="#000000" fill-rule="evenodd" stroke="#000000" stroke-width="2px" d="m792.589417,60.611099l6.02002,0l25.929993,13.038002q25.929993,13.038002 34.264954,17.084297q8.334045,4.046204 56.722046,26.300598q48.386963,22.255005 50.007996,22.479004q1.619995,0.225006 25.697998,10.565994q24.078979,10.340012 37.03894,15.286011q12.970093,4.944992 37.51001,13.487q24.540039,8.541992 31.02002,10.789993q6.48999,2.248001 16.209961,5.395004q9.720093,3.147995 25,7.64299q15.290039,4.496002 38.900024,10.791q23.609985,6.294006 45.840088,11.239014q22.22998,4.945999 28.709961,6.294998q6.47998,1.347992 41.209961,7.64299q34.72998,6.294006 43.530029,7.643005q8.790039,1.348007 43.059937,6.742996q34.26001,5.394989 34.730103,5.394989q0.459961,0 33.329956,6.295013q32.880005,6.294006 33.109985,6.519012l0.22998,0.223999l-1.390015,66.988983q-1.389893,66.988007 -6.939941,173.089996q-5.560059,106.10202 -8.800049,148.363007q-3.23999,42.260986 -7.409912,72.382996q-4.170044,30.122009 -9.720093,57.096985q-5.559937,26.975037 -12.039917,54.400024q-6.47998,27.424011 -11.580078,48.10498q-5.089966,20.68103 -12.039917,44.509033q-6.940063,23.828003 -8.330078,28.773987q-1.390015,4.945007 -4.169922,12.588013q-2.780029,7.643005 -6.480103,18.882996q-3.699951,11.242004 -11.579956,32.372009q-7.869995,21.130005 -12.959961,33.719971q-5.089966,12.589966 -12.5,30.119995q-7.410034,17.530029 -18.98999,42.26001q-11.570068,24.72998 -13.890015,28.77002q-2.310059,4.049927 -16.900024,29.449951q-14.589966,25.400024 -17.599976,30.119995q-3.01001,4.720093 -14.349976,23.830078q-11.340088,19.109985 -14.820068,24.279907q-3.469971,5.170044 -10.650024,16.180054q-7.169922,11.02002 -11.569946,17.089966q-4.400024,6.070068 -10.190063,14.390015q-5.789917,8.310059 -11.109985,15.280029q-5.329956,6.969971 -8.339966,11.689941q-3.01001,4.720093 -8.790039,12.140015q-5.789917,7.420044 -11.119995,14.840088q-5.319946,7.409912 -11.569946,15.279907q-6.25,7.869995 -10.650024,13.48999q-4.400024,5.619995 -18.76001,21.360107q-14.349976,15.72998 -33.799927,35.959961q-19.450073,20.22998 -34.26001,34.619995q-14.820068,14.390015 -19.680054,18.209961q-4.869995,3.820068 -22.689941,19.330078q-17.830017,15.509888 -21.760071,18.880005q-3.940002,3.369995 -19.451965,16.639893q-15.512024,13.26001 -20.374023,17.080078q-4.860962,3.819946 -11.112,8.98999q-6.250977,5.169922 -17.364014,14.169922q-11.112976,8.990112 -16.901001,13.26001q-5.787964,4.27002 -11.112976,7.640015q-5.325012,3.369995 -19.447998,11.690063q-14.122009,8.319946 -18.520996,11.23999q-4.398987,2.919922 -9.955994,6.069946q-5.55603,3.150024 -11.575012,7.190063q-6.02002,4.049927 -8.797974,5.849976q-2.778015,1.800049 -12.039001,6.290039q-9.261047,4.5 -22.226013,10.339966q-12.965027,5.849976 -18.057983,7.650024l-5.093994,1.789917l-5.55603,-1.349976q-5.557007,-1.339966 -12.039001,-4.48999q-6.482971,-3.150024 -21.763,-10.790039q-15.279968,-7.639893 -17.594971,-9.439941q-2.31604,-1.800049 -11.808044,-7.869995q-9.492004,-6.070068 -14.354004,-8.98999q-4.862,-2.920044 -18.984985,-11.23999q-14.122009,-8.320068 -19.447021,-11.690063q-5.324951,-3.369995 -11.112976,-7.640015q-5.787964,-4.269897 -13.197021,-10.119995q-7.407959,-5.839966 -19.678955,-15.959961q-12.27002,-10.119995 -21.299011,-17.530029q-9.028992,-7.419922 -26.393005,-22.47998q-17.364014,-15.059937 -22.226013,-18.890015q-4.862,-3.819946 -21.299988,-17.97998q-16.437012,-14.160034 -18.289978,-15.959961q-1.85199,-1.800049 -16.437988,-15.960083q-14.584991,-14.159912 -20.373016,-20.22998q-5.787994,-6.069946 -25.467987,-26.97998q-19.678986,-20.900024 -23.614014,-25.619995q-3.935974,-4.719971 -11.575989,-13.939941q-7.640991,-9.220093 -12.039001,-14.840088q-4.398987,-5.619995 -8.798004,-11.689941q-4.398987,-6.060059 -9.260986,-12.580078q-4.862,-6.519897 -8.798004,-11.689941q-3.934998,-5.170044 -6.713989,-9.219971q-2.778015,-4.050049 -7.640015,-10.560059q-4.862,-6.52002 -8.333984,-11.689941q-3.473022,-5.170044 -9.261017,-13.48999q-5.787994,-8.320068 -8.798004,-13.040039q-3.009979,-4.719971 -9.723999,-14.839966q-6.713989,-10.109985 -8.796997,-13.930054q-2.083984,-3.819946 -11.575989,-19.329956q-9.493011,-15.52002 -12.502014,-20.23999q-3.009979,-4.720093 -15.048981,-25.849976q-12.039001,-21.130005 -18.058014,-31.920044q-6.02002,-10.790039 -10.650009,-20.22998q-4.631012,-9.440063 -12.965012,-28.320068q-8.334991,-18.890015 -8.334991,-19.339966q0,-0.449951 -8.335007,-20.680054q-8.334,-20.22998 -12.964996,-31.919922q-4.630005,-11.690063 -12.964996,-35.51001q-8.335007,-23.833008 -16.669006,-50.808044q-8.334991,-26.974976 -18.522003,-65.638977q-10.186996,-38.664978 -14.353989,-57.547974q-4.167007,-18.882019 -11.576004,-54.848999q-7.40799,-35.966003 -8.797997,-47.205017q-1.389,-11.23999 -6.019005,-68.786987q-4.629997,-57.546997 -6.019997,-86.77002q-1.389,-29.223022 -3.241005,-62.041992q-1.851997,-32.820007 -5.092995,-107.451019q-3.242004,-74.631989 -3.242004,-105.652985l0,-31.022003l3.010002,-1.572998q3.010002,-1.574005 16.438004,-3.821991q13.427994,-2.247009 37.042999,-5.843994q23.61499,-3.597015 71.770996,-11.689011q48.156021,-8.093002 68.993027,-11.690002q20.835999,-3.596008 55.100983,-11.238998q34.265015,-7.643005 59.269012,-14.387009q25.003998,-6.743988 43.061981,-12.588989q18.059021,-5.844009 28.246002,-8.992004q10.187012,-3.147003 19.447998,-6.294006q9.259979,-3.146988 37.042999,-13.487q27.781982,-10.340988 52.091003,-20.905991q24.30896,-10.565002 25.929993,-10.790009q1.620972,-0.224991 23.382996,-10.115997q21.763,-9.890999 39.357971,-17.983009q17.596008,-8.092987 34.728027,-16.185387q17.132996,-8.092499 42.599976,-21.130501l25.467041,-13.038002l6.018982,0l0,0z"/>
  <path id="svg_4" fill="url(#svg_9)" fill-rule="evenodd" stroke="#000000" stroke-width="2px" d="m791.55658,129.127426l5.578003,0l24.023987,12.078995q24.025024,12.07901 31.747009,15.828003q7.723022,3.748001 52.554993,24.365997q44.832031,20.618011 46.333008,20.826004q1.502014,0.208008 23.811035,9.787994q22.303955,9.580002 34.323975,14.162003q12.01001,4.581009 34.75,12.49501q22.72998,7.914001 28.73999,9.996994q6.01001,2.082001 15.02002,4.998001q9.01001,2.916 23.160034,7.081009q14.159912,4.165009 36.039917,9.996002q21.880005,5.832001 42.470093,10.412994q20.599976,4.582001 26.599976,5.832001q6.01001,1.248993 38.179932,7.080017q32.180054,5.832001 40.330078,7.080994q8.149902,1.25 39.899902,6.247986q31.75,4.998016 32.180054,4.998016q0.430054,0 30.890015,5.832001q30.459961,5.830994 30.670044,6.039001l0.209961,0.208984l-1.280029,62.061005q-1.290039,62.062012 -6.439941,160.359985q-5.150024,98.299011 -8.150024,137.450989q-3,39.153015 -6.859985,67.059998q-3.859985,27.906982 -9.01001,52.89801q-5.150024,24.990967 -11.160034,50.39801q-6,25.406982 -10.719971,44.566956q-4.719971,19.160034 -11.160034,41.235046q-6.429932,22.075989 -7.719971,26.657959q-1.290039,4.580994 -3.859985,11.662048q-2.570068,7.080994 -6.01001,17.493958q-3.430054,10.411987 -10.719971,29.992004q-7.290039,19.570068 -12.01001,31.23999q-4.720093,11.660034 -11.590088,27.900024q-6.859985,16.25 -17.589966,39.160034q-10.719971,22.899902 -12.869995,26.649902q-2.140015,3.75 -15.660034,27.280029q-13.51001,23.540039 -16.299927,27.910034q-2.790039,4.380005 -13.300049,22.079956q-10.51001,17.700073 -13.72998,22.48999q-3.209961,4.790039 -9.859985,14.98999q-6.650024,10.210083 -10.72998,15.830078q-4.080078,5.619995 -9.440063,13.329956q-5.359985,7.710083 -10.289917,14.160034q-4.940063,6.459961 -7.730103,10.829956q-2.789917,4.369995 -8.149902,11.25q-5.360107,6.869995 -10.290039,13.73999q-4.940063,6.869995 -10.72998,14.160034q-5.790039,7.290039 -9.869995,12.5q-4.070068,5.209961 -17.369995,19.780029q-13.300049,14.579956 -31.320068,33.329956q-18.02002,18.73999 -31.75,32.070068q-13.72998,13.329956 -18.22998,16.869995q-4.51001,3.539917 -21.02002,17.909912q-16.519958,14.369995 -20.165955,17.48999q-3.647034,3.120117 -18.019043,15.410034q-14.371948,12.290039 -18.875977,15.830078q-4.505005,3.539917 -10.296997,8.329956q-5.791016,4.790039 -16.088013,13.119995q-10.295959,8.329956 -15.658997,12.290039q-5.362,3.949951 -10.296021,7.079956q-4.93396,3.119995 -18.018982,10.829956q-13.084961,7.700073 -17.159973,10.410034q-4.075989,2.709961 -9.223999,5.619995q-5.14801,2.920044 -10.725037,6.670044q-5.578003,3.75 -8.151978,5.409912q-2.573975,1.670044 -11.153992,5.830078q-8.580017,4.169922 -20.593018,9.579956q-12.011963,5.420044 -16.731018,7.089966l-4.719971,1.660034l-5.14801,-1.25q-5.14801,-1.25 -11.153992,-4.160034q-6.005981,-2.919922 -20.164001,-10q-14.156982,-7.079956 -16.302002,-8.75q-2.14502,-1.659912 -10.940002,-7.289917q-8.794983,-5.619995 -13.299988,-8.330078q-4.504028,-2.699951 -17.588989,-10.409912q-13.085022,-7.700073 -18.019043,-10.830078q-4.932983,-3.119995 -10.295959,-7.079956q-5.363037,-3.959961 -12.22699,-9.369995q-6.864014,-5.420044 -18.233032,-14.790039q-11.369019,-9.369995 -19.734985,-16.23999q-8.366028,-6.869995 -24.453003,-20.829956q-16.088013,-13.950073 -20.593018,-17.48999q-4.505005,-3.540039 -19.734009,-16.660034q-15.22998,-13.119995 -16.945984,-14.790039q-1.71698,-1.659912 -15.22998,-14.789917q-13.514038,-13.119995 -18.877045,-18.73999q-5.363007,-5.619995 -23.596008,-24.98999q-18.233002,-19.370117 -21.880005,-23.740112q-3.645996,-4.369995 -10.724976,-12.909912q-7.07901,-8.540039 -11.154022,-13.75q-4.075989,-5.210083 -8.151978,-10.830078q-4.075012,-5.619995 -8.580017,-11.659912q-4.503998,-6.040039 -8.151001,-10.830078q-3.647003,-4.789917 -6.221008,-8.539917q-2.573975,-3.75 -7.078979,-9.790039q-4.503998,-6.040039 -7.722015,-10.829956q-3.21698,-4.790039 -8.579987,-12.490112q-5.363007,-7.709961 -8.151001,-12.079956q-2.789001,-4.369995 -9.01001,-13.75q-6.220001,-9.369995 -8.151001,-12.910034q-1.931,-3.539917 -10.725006,-17.909912q-8.794983,-14.369995 -11.583984,-18.73999q-2.787994,-4.380005 -13.942993,-23.950073q-11.154022,-19.579956 -16.731018,-29.569946q-5.576996,-10 -9.867981,-18.75q-4.290009,-8.73999 -12.012024,-26.23999q-7.721985,-17.48999 -7.721985,-17.910034q0,-0.420044 -7.722015,-19.160034q-7.722992,-18.73999 -12.01297,-29.569946q-4.289993,-10.830078 -12.011993,-32.910034q-7.722,-22.07196 -15.445007,-47.062988q-7.722,-24.991028 -17.160004,-60.812012q-9.438995,-35.820007 -13.300003,-53.313965q-3.860992,-17.493042 -10.724991,-50.814026q-6.863998,-33.322021 -8.151001,-43.734985q-1.287003,-10.413025 -5.578003,-63.72699q-4.289993,-53.315002 -5.576996,-80.389038q-1.287003,-27.072998 -3.003006,-57.479004q-1.716003,-30.406006 -4.718994,-99.547943q-3.003006,-69.141998 -3.003006,-97.882019l0,-28.73999l2.78801,-1.458008q2.788986,-1.457977 15.229996,-3.540985q12.442001,-2.082001 34.321991,-5.414001q21.879013,-3.333008 66.496979,-10.830017q44.617004,-7.497986 63.923004,-10.829987q19.306,-3.332001 51.053009,-10.412994q31.747009,-7.080017 54.914001,-13.328003q23.165985,-6.248016 39.89801,-11.663025q16.730988,-5.414993 26.169983,-8.330002q9.438049,-2.915985 18.018005,-5.830994q8.580017,-2.916 34.321045,-12.496002q25.740967,-9.580002 48.263977,-19.367996q22.52301,-9.787994 24.025024,-9.996994q1.500977,-0.208008 21.664978,-9.371002q20.164001,-9.164001 36.466003,-16.661011q16.302979,-7.496994 32.176025,-14.994995q15.873962,-7.496994 39.469971,-19.576004l23.595032,-12.078995l5.576965,0z"/>
 </g>
</svg>