<?xml version="1.0" encoding="utf-8"?>
<!-- Generator: Adobe Illustrator 23.0.2, SVG Export Plug-In . SVG Version: 6.00 Build 0)  -->
<svg version="1.1" id="Layer_1" xmlns="http://www.w3.org/2000/svg" xmlns:xlink="http://www.w3.org/1999/xlink" x="0px" y="0px"
	 viewBox="0 0 1538.5 1870.5" style="enable-background:new 0 0 1538.5 1870.5;" xml:space="preserve">
<style type="text/css">
	.st0{fill-rule:evenodd;clip-rule:evenodd;fill:#BCB708;stroke:#000000;stroke-width:2;}
	.st1{fill-rule:evenodd;clip-rule:evenodd;fill:#FFFF00;stroke:#000000;stroke-width:2;}
	.st2{fill-rule:evenodd;clip-rule:evenodd;fill:#FFFFFF;stroke:#000000;stroke-width:2;}
</style>
<title>escudo</title>
<g>
	<title>Layer 1</title>
	<path id="svg_1" class="st0" d="M794.5,118.8h5.6l24,12.1c16,8.1,26.6,13.3,31.7,15.8c5.1,2.5,22.7,10.6,52.6,24.4
		c29.9,13.7,45.3,20.7,46.3,20.8c1,0.1,8.9,3.4,23.8,9.8s26.3,11.1,34.3,14.2c8,3.1,19.6,7.2,34.8,12.5c15.2,5.3,24.7,8.6,28.7,10
		c4,1.4,9,3.1,15,5c6,1.9,13.7,4.3,23.2,7.1c9.4,2.8,21.5,6.1,36,10c14.6,3.9,28.7,7.4,42.5,10.4c13.7,3.1,22.6,5,26.6,5.8
		c4,0.8,16.7,3.2,38.2,7.1c21.5,3.9,34.9,6.2,40.3,7.1c5.4,0.8,18.7,2.9,39.9,6.2c21.2,3.3,31.9,5,32.2,5s10.6,1.9,30.9,5.8
		c20.3,3.9,30.5,5.9,30.7,6l0.2,0.2l-1.3,62.1c-0.9,41.4-3,94.8-6.4,160.4c-3.4,65.5-6.2,111.3-8.2,137.5c-2,26.1-4.3,48.5-6.9,67.1
		c-2.6,18.6-5.6,36.2-9,52.9c-3.4,16.7-7.2,33.5-11.2,50.4c-4,16.9-7.6,31.8-10.7,44.6c-3.1,12.8-6.9,26.5-11.2,41.2
		c-4.3,14.7-6.9,23.6-7.7,26.7c-0.9,3.1-2.1,6.9-3.9,11.7c-1.7,4.7-3.7,10.6-6,17.5c-2.3,6.9-5.9,16.9-10.7,30
		c-4.9,13-8.9,23.5-12,31.2c-3.1,7.8-7,17.1-11.6,27.9c-4.6,10.8-10.4,23.9-17.6,39.2c-7.1,15.3-11.4,24.2-12.9,26.7
		c-1.4,2.5-6.6,11.6-15.7,27.3c-9,15.7-14.4,25-16.3,27.9s-6.3,10.3-13.3,22.1c-7,11.8-11.6,19.3-13.7,22.5c-2.1,3.2-5.4,8.2-9.9,15
		c-4.4,6.8-8,12.1-10.7,15.8s-5.9,8.2-9.4,13.3c-3.6,5.1-7,9.9-10.3,14.2c-3.3,4.3-5.9,7.9-7.7,10.8c-1.9,2.9-4.6,6.7-8.2,11.2
		c-3.6,4.6-7,9.2-10.3,13.7c-3.3,4.6-6.9,9.3-10.7,14.2s-7.2,9-9.9,12.5c-2.7,3.5-8.5,10.1-17.4,19.8c-8.9,9.7-19.3,20.8-31.3,33.3
		c-12,12.5-22.6,23.2-31.8,32.1s-15.2,14.5-18.2,16.9c-3,2.4-10,8.3-21,17.9c-11,9.6-17.7,15.4-20.2,17.5c-2.4,2.1-8.4,7.2-18,15.4
		s-15.9,13.5-18.9,15.8c-3,2.4-6.4,5.1-10.3,8.3c-3.9,3.2-9.2,7.6-16.1,13.1c-6.9,5.6-12.1,9.7-15.7,12.3c-3.6,2.6-7,5-10.3,7.1
		c-3.3,2.1-9.3,5.7-18,10.8c-8.7,5.1-14.4,8.6-17.2,10.4c-2.7,1.8-5.8,3.7-9.2,5.6c-3.4,1.9-7,4.2-10.7,6.7
		c-3.7,2.5-6.4,4.3-8.2,5.4c-1.7,1.1-5.4,3.1-11.2,5.8c-5.7,2.8-12.6,6-20.6,9.6c-8,3.6-13.6,6-16.7,7.1l-4.7,1.7l-5.1-1.2
		c-3.4-0.8-7.2-2.2-11.2-4.2c-4-1.9-10.7-5.3-20.2-10c-9.4-4.7-14.9-7.6-16.3-8.8c-1.4-1.1-5.1-3.5-10.9-7.3
		c-5.9-3.7-10.3-6.5-13.3-8.3c-3-1.8-8.9-5.3-17.6-10.4c-8.7-5.1-14.7-8.8-18-10.8c-3.3-2.1-6.7-4.4-10.3-7.1
		c-3.6-2.6-7.7-5.8-12.2-9.4c-4.6-3.6-10.7-8.5-18.2-14.8c-7.6-6.2-14.2-11.7-19.7-16.2c-5.6-4.6-13.7-11.5-24.5-20.8
		c-10.7-9.3-17.6-15.1-20.6-17.5c-3-2.4-9.6-7.9-19.7-16.7c-10.2-8.7-15.8-13.7-16.9-14.8s-6.2-6-15.2-14.8
		c-9-8.7-15.3-15-18.9-18.7c-3.6-3.7-11.4-12.1-23.6-25s-19.4-20.8-21.9-23.7c-2.4-2.9-6-7.2-10.7-12.9c-4.7-5.7-8.4-10.3-11.2-13.8
		c-2.7-3.5-5.4-7.1-8.2-10.8c-2.7-3.7-5.6-7.6-8.6-11.7c-3-4-5.7-7.6-8.2-10.8c-2.4-3.2-4.5-6-6.2-8.5s-4.1-5.8-7.1-9.8
		c-3-4-5.6-7.6-7.7-10.8c-2.1-3.2-5-7.4-8.6-12.5c-3.6-5.1-6.3-9.2-8.2-12.1c-1.9-2.9-4.9-7.5-9-13.8c-4.1-6.2-6.9-10.6-8.2-12.9
		c-1.3-2.4-4.9-8.3-10.7-17.9s-9.7-15.8-11.6-18.7c-1.9-2.9-6.5-10.9-13.9-24c-7.4-13.1-13-22.9-16.7-29.6c-3.7-6.7-7-12.9-9.9-18.7
		c-2.9-5.8-6.9-14.6-12-26.2c-5.1-11.7-7.7-17.6-7.7-17.9s-2.6-6.7-7.7-19.2c-5.1-12.5-9.2-22.3-12-29.6c-2.9-7.2-6.9-18.2-12-32.9
		c-5.1-14.7-10.3-30.4-15.4-47.1c-5.1-16.7-10.9-36.9-17.2-60.8c-6.3-23.9-10.7-41.7-13.3-53.3c-2.6-11.7-6.1-28.6-10.7-50.8
		c-4.6-22.2-7.3-36.8-8.2-43.7s-2.7-28.2-5.6-63.7c-2.9-35.5-4.7-62.3-5.6-80.4c-0.9-18-1.9-37.2-3-57.5s-2.7-53.5-4.7-99.5
		c-2-46.1-3-78.7-3-97.9V315l2.8-1.5c1.9-1,6.9-2.2,15.2-3.5c8.3-1.4,19.7-3.2,34.3-5.4c14.6-2.2,36.8-5.8,66.5-10.8
		c29.7-5,51.1-8.6,63.9-10.8c12.9-2.2,29.9-5.7,51.1-10.4c21.2-4.7,39.5-9.2,54.9-13.3c15.4-4.2,28.7-8.1,39.9-11.7
		c11.2-3.6,19.9-6.4,26.2-8.3c6.3-1.9,12.3-3.9,18-5.8c5.7-1.9,17.2-6.1,34.3-12.5c17.2-6.4,33.2-12.8,48.3-19.4s23-9.9,24-10
		c1-0.1,8.2-3.3,21.7-9.4c13.4-6.1,25.6-11.7,36.5-16.7c10.9-5,21.6-10,32.2-15c10.6-5,23.7-11.5,39.5-19.6l23.6-12.1H794.5z"/>
	<path id="svg_2" class="st1" d="M772.9,133h5.6l24,12.1c16,8.1,26.6,13.3,31.7,15.8c5.1,2.5,22.7,10.6,52.6,24.4
		c29.9,13.7,45.3,20.7,46.3,20.8c1,0.1,8.9,3.4,23.8,9.8c14.9,6.4,26.3,11.1,34.3,14.2c8,3.1,19.6,7.2,34.7,12.5
		c15.2,5.3,24.7,8.6,28.7,10c4,1.4,9,3.1,15,5c6,1.9,13.7,4.3,23.2,7.1c9.4,2.8,21.5,6.1,36,10c14.6,3.9,28.7,7.4,42.5,10.4
		c13.7,3.1,22.6,5,26.6,5.8c4,0.8,16.7,3.2,38.2,7.1c21.5,3.9,34.9,6.2,40.3,7.1c5.4,0.8,18.7,2.9,39.9,6.2c21.2,3.3,31.9,5,32.2,5
		c0.3,0,10.6,1.9,30.9,5.8c20.3,3.9,30.5,5.9,30.7,6l0.2,0.2l-1.3,62.1c-0.9,41.4-3,94.8-6.4,160.4c-3.4,65.5-6.2,111.4-8.2,137.5
		c-2,26.1-4.3,48.5-6.9,67.1c-2.6,18.6-5.6,36.2-9,52.9c-3.4,16.7-7.2,33.5-11.2,50.4c-4,16.9-7.6,31.8-10.7,44.6
		c-3.1,12.8-6.9,26.5-11.2,41.2c-4.3,14.7-6.9,23.6-7.7,26.7s-2.1,6.9-3.9,11.7c-1.7,4.7-3.7,10.6-6,17.5c-2.3,6.9-5.9,16.9-10.7,30
		c-4.9,13.1-8.9,23.5-12,31.2c-3.1,7.8-7,17.1-11.6,27.9s-10.4,23.9-17.6,39.1c-7.1,15.3-11.4,24.2-12.9,26.7
		c-1.4,2.5-6.6,11.6-15.7,27.3c-9,15.7-14.4,25-16.3,27.9c-1.9,2.9-6.3,10.3-13.3,22.1c-7,11.8-11.6,19.3-13.7,22.5
		c-2.1,3.2-5.4,8.2-9.9,15c-4.4,6.8-8,12.1-10.7,15.8c-2.7,3.7-5.9,8.2-9.4,13.3c-3.6,5.1-7,9.9-10.3,14.2
		c-3.3,4.3-5.9,7.9-7.7,10.8s-4.6,6.7-8.2,11.2c-3.6,4.6-7,9.2-10.3,13.8c-3.3,4.6-6.9,9.3-10.7,14.2c-3.9,4.9-7.2,9-9.9,12.5
		c-2.7,3.5-8.5,10.1-17.4,19.8c-8.9,9.7-19.3,20.8-31.3,33.3c-12,12.5-22.6,23.2-31.8,32.1c-9.2,8.9-15.2,14.5-18.2,16.9
		c-3,2.4-10,8.3-21,17.9c-11,9.6-17.7,15.4-20.2,17.5c-2.4,2.1-8.4,7.2-18,15.4c-9.6,8.2-15.9,13.5-18.9,15.8
		c-3,2.4-6.4,5.1-10.3,8.3c-3.9,3.2-9.2,7.6-16.1,13.1c-6.9,5.6-12.1,9.6-15.7,12.3c-3.6,2.6-7,5-10.3,7.1c-3.3,2.1-9.3,5.7-18,10.8
		c-8.7,5.1-14.4,8.6-17.2,10.4c-2.7,1.8-5.8,3.7-9.2,5.6c-3.4,1.9-7,4.2-10.7,6.7c-3.7,2.5-6.4,4.3-8.2,5.4
		c-1.7,1.1-5.4,3.1-11.2,5.8c-5.7,2.8-12.6,6-20.6,9.6c-8,3.6-13.6,6-16.7,7.1l-4.7,1.7l-5.1-1.2c-3.4-0.8-7.1-2.2-11.2-4.2
		c-4-1.9-10.7-5.3-20.2-10c-9.4-4.7-14.9-7.6-16.3-8.8c-1.4-1.1-5.1-3.5-10.9-7.3c-5.9-3.7-10.3-6.5-13.3-8.3
		c-3-1.8-8.9-5.3-17.6-10.4c-8.7-5.1-14.7-8.8-18-10.8c-3.3-2.1-6.7-4.4-10.3-7.1c-3.6-2.6-7.7-5.8-12.2-9.4
		c-4.6-3.6-10.7-8.5-18.2-14.8c-7.6-6.2-14.2-11.7-19.7-16.2c-5.6-4.6-13.7-11.5-24.5-20.8c-10.7-9.3-17.6-15.1-20.6-17.5
		c-3-2.4-9.6-7.9-19.7-16.7c-10.2-8.8-15.8-13.7-16.9-14.8c-1.1-1.1-6.2-6-15.2-14.8c-9-8.7-15.3-15-18.9-18.7
		c-3.6-3.7-11.4-12.1-23.6-25s-19.4-20.8-21.9-23.7c-2.4-2.9-6-7.2-10.7-12.9c-4.7-5.7-8.4-10.3-11.2-13.7
		c-2.7-3.5-5.4-7.1-8.2-10.8c-2.7-3.7-5.6-7.6-8.6-11.7c-3-4-5.7-7.6-8.2-10.8c-2.4-3.2-4.5-6-6.2-8.5s-4.1-5.8-7.1-9.8
		c-3-4-5.6-7.6-7.7-10.8s-5-7.4-8.6-12.5c-3.6-5.1-6.3-9.2-8.2-12.1c-1.9-2.9-4.9-7.5-9-13.8s-6.9-10.5-8.2-12.9
		c-1.3-2.4-4.9-8.3-10.7-17.9c-5.9-9.6-9.7-15.8-11.6-18.7c-1.9-2.9-6.5-10.9-13.9-23.9c-7.4-13.1-13-22.9-16.7-29.6
		c-3.7-6.7-7-12.9-9.9-18.7c-2.9-5.8-6.9-14.6-12-26.2c-5.1-11.7-7.7-17.6-7.7-17.9c0-0.3-2.6-6.7-7.7-19.2
		c-5.1-12.5-9.2-22.3-12-29.6c-2.9-7.2-6.9-18.2-12-32.9c-5.1-14.7-10.3-30.4-15.4-47.1s-10.9-36.9-17.2-60.8
		c-6.3-23.9-10.7-41.7-13.3-53.3c-2.6-11.7-6.1-28.6-10.7-50.8c-4.6-22.2-7.3-36.8-8.2-43.7s-2.7-28.2-5.6-63.7
		c-2.9-35.5-4.7-62.3-5.6-80.4c-0.9-18-1.9-37.2-3-57.5c-1.1-20.3-2.7-53.5-4.7-99.5c-2-46.1-3-78.7-3-97.9v-28.7l2.8-1.5
		c1.9-1,6.9-2.2,15.2-3.5c8.3-1.4,19.7-3.2,34.3-5.4c14.6-2.2,36.8-5.8,66.5-10.8c29.7-5,51.1-8.6,63.9-10.8
		c12.9-2.2,29.9-5.7,51.1-10.4c21.2-4.7,39.5-9.2,54.9-13.3c15.4-4.2,28.7-8.1,39.9-11.7c11.2-3.6,19.9-6.4,26.2-8.3
		c6.3-1.9,12.3-3.9,18-5.8s17.2-6.1,34.3-12.5c17.2-6.4,33.2-12.8,48.3-19.4c15-6.5,23-9.9,24-10c1-0.1,8.2-3.3,21.7-9.4
		c13.4-6.1,25.6-11.7,36.5-16.7c10.9-5,21.6-10,32.2-15c10.6-5,23.7-11.5,39.5-19.6l23.6-12.1H772.9z"/>
	<path id="path2" class="st2" d="M792.6,272h6l25.9,11.4c17.3,7.6,28.7,12.5,34.3,14.9c5.6,2.3,24.5,10,56.7,22.9
		c32.3,12.9,48.9,19.4,50,19.6c1.1,0.1,9.6,3.2,25.7,9.2c16.1,6,28.4,10.4,37,13.3c8.6,2.9,21.2,6.8,37.5,11.7
		c16.4,5,26.7,8.1,31,9.4c4.3,1.3,9.7,2.9,16.2,4.7c6.5,1.8,14.8,4,25,6.7c10.2,2.6,23.2,5.7,38.9,9.4c15.7,3.7,31,6.9,45.8,9.8
		c14.8,2.9,24.4,4.7,28.7,5.5c4.3,0.8,18.1,3,41.2,6.7c23.2,3.7,37.7,5.9,43.5,6.7c5.9,0.8,20.2,2.7,43.1,5.9
		c22.8,3.1,34.4,4.7,34.7,4.7c0.3,0,11.4,1.8,33.3,5.5c21.9,3.7,33,5.5,33.1,5.7l0.2,0.2l-1.4,58.3c-0.9,38.9-3.2,89.1-6.9,150.7
		c-3.7,61.6-6.6,104.7-8.8,129.2c-2.2,24.5-4.6,45.5-7.4,63c-2.8,17.5-6,34.1-9.7,49.7c-3.7,15.7-7.7,31.4-12,47.4
		c-4.3,15.9-8.2,29.9-11.6,41.9c-3.4,12-7.4,24.9-12,38.8c-4.6,13.8-7.4,22.2-8.3,25.1c-0.9,2.9-2.3,6.5-4.2,11
		c-1.9,4.4-4,9.9-6.5,16.4c-2.5,6.5-6.3,15.9-11.6,28.2c-5.2,12.3-9.6,22.1-13,29.4c-3.4,7.3-7.6,16.1-12.5,26.2s-11.3,22.4-19,36.8
		c-7.7,14.4-12.3,22.7-13.9,25.1c-1.5,2.4-7.2,10.9-16.9,25.6c-9.7,14.7-15.6,23.5-17.6,26.2c-2,2.7-6.8,9.7-14.3,20.8
		c-7.6,11.1-12.5,18.1-14.8,21.1c-2.3,3-5.9,7.7-10.7,14.1c-4.8,6.4-8.6,11.4-11.6,14.9c-2.9,3.5-6.3,7.7-10.2,12.5
		c-3.9,4.8-7.6,9.3-11.1,13.3c-3.6,4-6.3,7.4-8.3,10.2c-2,2.7-4.9,6.3-8.8,10.6c-3.9,4.3-7.6,8.6-11.1,12.9
		c-3.5,4.3-7.4,8.7-11.6,13.3c-4.2,4.6-7.7,8.5-10.7,11.7s-9.2,9.5-18.8,18.6c-9.6,9.1-20.8,19.6-33.8,31.3
		c-13,11.7-24.4,21.8-34.3,30.1c-9.9,8.4-16.4,13.6-19.7,15.9c-3.2,2.2-10.8,7.8-22.7,16.8c-11.9,9-19.1,14.5-21.8,16.4
		c-2.6,2-9.1,6.8-19.5,14.5c-10.3,7.7-17.1,12.7-20.4,14.9c-3.2,2.2-6.9,4.8-11.1,7.8s-10,7.1-17.4,12.3c-7.4,5.2-13,9.1-16.9,11.5
		s-7.6,4.7-11.1,6.7c-3.5,2-10,5.3-19.4,10.2c-9.4,4.8-15.6,8.1-18.5,9.8s-6.3,3.5-10,5.3c-3.7,1.8-7.6,3.9-11.6,6.3
		c-4,2.4-6.9,4-8.8,5.1c-1.9,1-5.9,2.9-12,5.5c-6.2,2.6-13.6,5.6-22.2,9c-8.6,3.4-14.7,5.6-18.1,6.7l-5.1,1.6l-5.6-1.2
		c-3.7-0.8-7.7-2.1-12-3.9c-4.3-1.8-11.6-5-21.8-9.4c-10.2-4.4-16.1-7.2-17.6-8.2c-1.5-1-5.5-3.3-11.8-6.9
		c-6.3-3.5-11.1-6.1-14.4-7.8c-3.2-1.7-9.6-5-19-9.8c-9.4-4.8-15.9-8.2-19.4-10.2c-3.5-2-7.3-4.2-11.1-6.7
		c-3.9-2.5-8.3-5.4-13.2-8.8c-4.9-3.4-11.5-8-19.7-13.9c-8.2-5.9-15.3-11-21.3-15.3c-6-4.3-14.8-10.8-26.4-19.6s-19-14.2-22.2-16.4
		c-3.2-2.2-10.3-7.4-21.3-15.7c-11-8.2-17.1-12.9-18.3-13.9c-1.2-1-6.7-5.7-16.4-13.9c-9.7-8.2-16.5-14.1-20.4-17.6
		c-3.9-3.5-12.3-11.4-25.5-23.5c-13.1-12.1-21-19.6-23.6-22.3c-2.6-2.7-6.5-6.8-11.6-12.1c-5.1-5.4-9.1-9.7-12-12.9
		c-2.9-3.3-5.9-6.7-8.8-10.2c-2.9-3.5-6-7.2-9.3-11c-3.2-3.8-6.2-7.2-8.8-10.2c-2.6-3-4.9-5.7-6.7-8c-1.9-2.4-4.4-5.4-7.6-9.2
		c-3.2-3.8-6-7.2-8.3-10.2c-2.3-3-5.4-6.9-9.3-11.7c-3.9-4.8-6.8-8.6-8.8-11.4c-2-2.7-5.2-7-9.7-12.9c-4.5-5.9-7.4-9.9-8.8-12.1
		c-1.4-2.2-5.2-7.8-11.6-16.8c-6.3-9-10.5-14.9-12.5-17.6c-2-2.7-7-10.2-15-22.5c-8-12.3-14-21.5-18.1-27.8
		c-4-6.3-7.6-12.1-10.7-17.6c-3.1-5.5-7.4-13.7-13-24.7c-5.6-11-8.3-16.6-8.3-16.8c0-0.3-2.8-6.3-8.3-18c-5.6-11.7-9.9-21-13-27.8
		c-3.1-6.8-7.4-17.1-13-30.9c-5.6-13.8-11.1-28.6-16.7-44.2c-5.6-15.7-11.7-34.7-18.5-57.2c-6.8-22.4-11.6-39.1-14.4-50.1
		c-2.8-11-6.6-26.9-11.6-47.8c-4.9-20.9-7.9-34.6-8.8-41.1c-0.9-6.5-2.9-26.5-6-59.9c-3.1-33.4-5.1-58.6-6-75.6c-0.9-17-2-35-3.2-54
		c-1.2-19.1-2.9-50.2-5.1-93.6c-2.2-43.3-3.2-74-3.2-92v-27l3-1.4c2-0.9,7.5-2,16.4-3.3c9-1.3,21.3-3,37-5.1s39.7-5.5,71.8-10.2
		c32.1-4.7,55.1-8.1,69-10.2c13.9-2.1,32.3-5.3,55.1-9.8c22.8-4.4,42.6-8.6,59.3-12.5c16.7-3.9,31-7.6,43.1-11
		c12-3.4,21.5-6,28.2-7.8c6.8-1.8,13.3-3.7,19.4-5.5c6.2-1.8,18.5-5.7,37-11.7c18.5-6,35.9-12.1,52.1-18.2
		c16.2-6.1,24.8-9.3,25.9-9.4c1.1-0.1,8.9-3.1,23.4-8.8c14.5-5.7,27.6-11,39.4-15.7c11.7-4.7,23.3-9.4,34.7-14.1
		c11.4-4.7,25.6-10.8,42.6-18.4l25.5-11.4H792.6L792.6,272z"/>
</g>
</svg>
