<svg xmlns="http://www.w3.org/2000/svg" viewBox="0 0 288.15 212.63"><defs><style>.cls-1{fill:#444242;}.cls-1,.cls-2,.cls-3,.cls-4{stroke:#211915;stroke-miterlimit:2.61;stroke-width:0.18px;fill-rule:evenodd;}.cls-2{fill:#c2c3c9;}.cls-3{fill:#fff;}.cls-4{fill:#ba007c;}</style></defs><title>Asset 1</title><g id="Layer_2" data-name="Layer 2"><g id="Capa_1" data-name="Capa 1"><path class="cls-1" d="M288,41.12c.36,4.49-1.56,8.4-5.37,11.82-.91,6.07-3.65,9.76-8.07,11.29-.9,4.23-3.93,6.84-8.42,8.33-4.4,11.91-10,13.07-15.76,12.36,2.7-3.5,4.92-6.91,4.39-9.76-4,3.49-8.07,5.16-12.1,4.3.83-3.21.61-5.71-1.48-6.94-3.53-.75-5,4.17-8.24,4.88-2.42-2.61-1.38-5.29-3.45-7.7-2.92,1.55-4.82,4.25-7,5.68-4.13-.84-4.57-4.81-6.85-7.34a16.07,16.07,0,0,0-6,4.84,13.19,13.19,0,0,1-5.73-7.75c-12.4,6,2.1,16.23,5.37,8.91,2.19,1.45,2.89,3.88,1.8,7.48,2.45.53,4.54,0,5.59-3.4a15.24,15.24,0,0,1,3.68,10.25c3.2-.07,6.26-.77,8.69-4.07,2.42,2.82,3.48,5.7,3,8.64a6.48,6.48,0,0,0,3.76-4.21,9.92,9.92,0,0,1,4.8,6.36c5.15-1,6.72-8.35,12.27-6.4,1.14,6-2.48,11.54-8.51,16.84-3.52,20.62-17.43,12.4-18.5,24.72-3.21-9.14-.24-8.78-.36-13.17-5.39-.45-9.07,1.08-12,3.5.88-5.24,3.19-1.18,2.71-10.3-3.18-4.24-7.74-7.25-12.17-7-14.2.77-28.31,18.86-27.68,35.31a30.45,30.45,0,0,1-5.73-9.85c-8.49,8.39-9.55,18.6-8.24,29.38a72.7,72.7,0,0,1-7.17-14.33c-11.71,12-11.17,23.44-8.51,34.76a39.17,39.17,0,0,1-8.51-13.44c-8,7.31-10.24,17.94-10.12,29.92a116.93,116.93,0,0,1-7-11.47c-9.8,6.43-9.26,18-9.94,29C104,204.09,98.33,193.76,100,174.5c-6.63,3.35-13.7-1.59-21.23,2.78,4.82-7.15-1.1-14.61,3.58-22.12-10.82,5.17-17.08-.28-25.62,5.19,4-7.73,4.35-15,4.21-22.22-7,1.84-13.73.23-21.14,4,5.72-10-.12-13.22,4.79-23.65a14,14,0,0,1-5.69,1.27c-13.45-.72-9.47,2.65-16.61,2.35,6.63-7.27,1.43-12,5.64-18-2.71-.67-5.38,2-8.19,1.71,1.92-3.3,4.18-2.42,4.83-5.2C14.65,98.66,7,92.82.06,85.73c6.49,4.16,15.36,3.81,29.25-6-6.6-2.44-11.58-5.77-14.6-10.17,3.07,2.69,8.67,2.4,15,1.39a67.39,67.39,0,0,0,19.13-5.64C42.25,62.33,37,58.74,34,54.15c8.87,6.77,29.57-.76,37.9-3.63-9.24-2.84-15.5-6.18-17-10.34,5.71,6,18.91,3.53,36.33-3.72-6.79-3.6-11.32-7.26-13.8-11Q96,32.9,116.25,25.08q-8.58-5-12-12.54c10.87,6.28,23.23,7.31,36.73,4.39C134.7,11.25,130.54,5.61,130.67.05,137.25,11,163.74,17.59,183,8.51l45.33,11.74c.94.31,1.55-.24,2.33-.36.05,2.49,3.83,3.77,9.49,10.93,24.42,2,27.86,9.37,47.84,10.3Z"/><path class="cls-2" d="M10.52,91.06C19.52,89.73,27.08,86.43,33,81l4,1.35C31,85.67,28,91.18,26.42,97.69c-6.16-.67-11.6-2.62-15.9-6.63Z"/><path class="cls-2" d="M55.66,67.81c-11,1.48-20.09,5.92-31.08,6.45a49.35,49.35,0,0,0,18.36,6.63c2.7-5.06,6.08-9.81,12.72-13.08Z"/><path class="cls-2" d="M71.07,54.65a101,101,0,0,1-27.59,5A35.85,35.85,0,0,0,66,65.3a36.63,36.63,0,0,1,5.1-10.65Z"/><path class="cls-2" d="M56.69,89.31a25.91,25.91,0,0,1-6.4,7.44,4.71,4.71,0,0,0,2.82.4c-3.84,5.54-13.1,5.75-24.81,3.54,3.79-9.12,6.7-15.45,10.75-15.63a4.91,4.91,0,0,0-2.11,4.66c2.5-2.94,9.33-2.9,19.75-.41Z"/><path class="cls-2" d="M48.36,104.32c-2,7.79,6.24,11.82-19.57,13.08,1.42-4.38-.12-11.31,4.25-13.13,4.25,1.25,9.41,1.19,15.32,0Z"/><path class="cls-2" d="M67.71,117c-4.25,13.12,4.11,17.89-22.17,19.62,2.45-3.9-3-12.4,5-17,3.16-1.82,8.74-1,17.15-2.58Z"/><path class="cls-2" d="M85,131.15c-9-.15-16.43,1.38-19,5.55-3,4.89-.46,12.86-2.87,17.83,27.75,1.39,17.53-10.75,21.85-23.38Z"/><path class="cls-2" d="M118.64,166.26c-22.09,2.86-15.57,20.53-10.57,34.31,2.44-9.62,5.85-17.4,11.64-20.69a34.66,34.66,0,0,1-1.07-13.62Z"/><path class="cls-2" d="M65.11,67.19C51.7,69.1,50.94,77.48,43.53,84.65c4.86.17,9.19,2.08,14.46,1.3a24.65,24.65,0,0,1,6.9-12.81,11.44,11.44,0,0,1-5.46.45,16.26,16.26,0,0,0,5.68-6.4Z"/><path class="cls-2" d="M107.53,149.51c-8.49,3.4-17.55.62-21.4,7.31-2.86,5-.1,11-2.52,16,27.76,1.39,23.71-12.14,23.92-23.29Z"/><path class="cls-2" d="M136,157.26l1,3.09a37.82,37.82,0,0,0-11.15,22A27.5,27.5,0,0,1,123,164.65,23.54,23.54,0,0,0,136,157.26Z"/><path class="cls-2" d="M137.27,138.85c0,2.26-1.14,4.09-1.2,5.91-.44,14.42-5.85,13.52-24.69,19.35,1-3.65.27-4.37.27-6.27,0-4.42.21-7.4,1.7-9.3,2.25-2.86,6.53-3.48,10.42-4.67,5.18-1.59,6.6-4.46,13.5-5Z"/><path class="cls-2" d="M68.65,130.16c9.65-2.19,17-.66,20.48-5.76,2.46-3.64,1.08-10.13,2.1-17.89-6.46,1.79-13.8,2.32-17.39,6.08-3.94,4.12-2.23,11.74-5.19,17.57Z"/><path class="cls-2" d="M57.37,94.6c5.59,1.13,11.21,1.85,17.11-1.35.37-3.34,2.11-6.66,5.46-9.94a14.24,14.24,0,0,1-5.2.81c3.53-3,6.52-6,6.45-9.14a17.2,17.2,0,0,1-9.94-.63c-11.61,2.59-8,15.16-13.88,20.25Z"/><path class="cls-2" d="M50.65,115.38c8.2.1,16-.5,21.18-5.19a4.41,4.41,0,0,1-2.59-.09c2.66-2.4,5-5.25,4.43-12.14a27.32,27.32,0,0,1-14.51-.76c-8.83,3.51-8.38,12.16-8.51,18.18Z"/><path class="cls-2" d="M107.89,124.25C86.43,126.53,86,133.13,87.37,150c12-2.7,18.39-2.24,20.36-5.08,3.28-4.73-3.39-13.37.16-20.63Z"/><path class="cls-2" d="M154.29,133.57l.45,5.82c-6,5.09-10.66,12.92-13,25.17-2.5-7.45-3.11-15.93-.36-26.25a27.56,27.56,0,0,0,12.9-4.74Z"/><path class="cls-2" d="M170,119.23l-.18,5.38c-5.27,4-8.47,11.07-10.39,20.15-1.91-7-2.7-14,.89-21a21.81,21.81,0,0,0,9.68-4.57Z"/><path class="cls-2" d="M112,144.81c5.5-4.62,14-3.41,17.14-8.3,2.35-3.68.72-11.59,1.81-18.67-3.44,2.71-10.8-3.37-18.07,6.28-6.42,8.51,2,15.25-.88,20.69Z"/><path class="cls-2" d="M117.21,98.18c-3.73,3.88-.85,14.83-5.1,20-5.18,6.27-13.92,2.09-19.18,5.28,3.47-5-2.05-14,4.84-20,7.59-6.55,14-2.93,19.44-5.29Z"/><path class="cls-2" d="M99.47,82.24c-1.12,6.8-.77,14.14-5,18-4.55,4.16-12.28,5.37-19.26,6.87,4.26-5.18.11-13.94,5.53-19.75S94.56,85,99.47,82.24Z"/><path class="cls-2" d="M87.55,52.05C66,49.87,73.82,64.35,67,70.5c24,6.93,9.32-3.34,24.73-10.66-2.72-1.54-5.75.06-7.89-1,3.29-3.1,4.3-5.27,3.76-6.81Z"/><path class="cls-2" d="M107,60.2c.46,19.56-10.78,21.67-24.45,20.15,4.51-6.56,1.13-12.78,13.53-19.7A13,13,0,0,0,107,60.2Z"/><path class="cls-2" d="M95.17,38.52c-3.41,3.3-5.64,6.79-6.18,10.57a45.1,45.1,0,0,1-20.52-2.78,109.18,109.18,0,0,0,26.7-7.79Z"/><path class="cls-2" d="M100.81,38.79a17.3,17.3,0,0,0,9,.9A37.42,37.42,0,0,1,102.51,50c3.41.8,5.23-1.37,11.11.71a10.08,10.08,0,0,0-4.3,5c-10.43,6.4-13.08.72-19.62,1.08,2.46-4.56.56-12.11,11.11-18Z"/><path class="cls-2" d="M148.38,110.1c-22.57,2.35-10.57,17.79-15.86,26.69,8-4.18,16.22,3.51,23.92-12.54-5,.23-8.26,2.33-11.2,4.84,4.1-8.39,1.33-12.48,3.14-19Z"/><path class="cls-2" d="M172.57,106.78c-3.35,15.33-10.89,11.71-21,15.41.5-4.15-1.77-8.71,1.52-12.45a11.62,11.62,0,0,0,8.42-3c.09,3.07.72,5.11,1.88,6.09.21-3.1,3.08-5.2,9.14-6.09Z"/><path class="cls-2" d="M165,86.54c-1.92,5.13-1.07,10.45-1.61,15.67-8.72,6.72-15.47,3.77-23.2,5.65,4.32-4.34-1.92-11.25,6.59-17.68,6.64-5,13.33-2,18.22-3.64Z"/><path class="cls-2" d="M145.24,70.14,134.83,70c-14.15,4.25-7.51,15.13-11.26,22.7,5.47-4.14,16.38.39,20.74-7,2.11-3.55,1.07-10.45.93-15.63Z"/><path class="cls-2" d="M123.92,73.82c-3.9,3.36-10.49-1.39-18.56,4.62-6,4.46-.84,15.73-5.09,20.19,4.43-2.26,15.31-1.69,19.15-6.32,4.8-5.79.78-14.59,4.5-18.49Z"/><path class="cls-2" d="M126.88,52.85c-.22,6.18,1.53,12.85-1.06,16C122,73.49,114.47,72.48,107.71,73c3.25-7.14.33-17.27,9.76-21.41a61.85,61.85,0,0,0,9.41,1.25Z"/><path class="cls-2" d="M117.29,116.14c3.69-4.33-3.17-12.8,5.71-20,6.53-5.31,13.18-.23,17.09-3.86-3.35,3.51,2.21,10.42-4.86,18.37-6.88,7.73-12.35,1.19-17.94,5.5Z"/><path class="cls-2" d="M117.5,32.29a29.69,29.69,0,0,0-6.12,5.34c-7.75-.37-14.19-2.3-19.44-5.65,11.06-.13,22.75-2.59,34.76-6.18a21.38,21.38,0,0,1-11.82-5.29c11.13,1,22.4,1.14,34.13-1.25a18.23,18.23,0,0,1-9-8.15c12.35,5.76,26,7.59,42.55.81a129.3,129.3,0,0,0,13.17,2.5c-1.64,1.19-5.8,1.17-10.66.81,5.79,5.09,24.66-.39,30,6-6.86,1.06-11.46,7.15-19.44,4.39,3.27,3.26,10.9.78,17.91-.29,7.7-1.18,14.64-.82,13.8,7-12.52.1-24.89.82-37.18,1.88,18.4,3.66,6.33,5.35,24,13.26-34.44,14.19-24.4,16-33.77,31.26,3.64-2.52,3.87-4.61,4.8-7,2-5.32,3.78-11.3,27-20.64,3.46-1.39,4-1.27,9.13-2l-3.85-.27c20.55-13.6,48.79-16.79,59.21,2.33a6.82,6.82,0,0,0,4.21-1c-1.89-1.46-2.45-2.63,1.79-2.78-.44-1.74-2.66-1.73-5.69-.94a6.94,6.94,0,0,1-2.46-4.12l10.17.58c-1.17,4.82-2.75,8.44-5.47,8.73-.17,5-2.92,7.89-6.49,10.13C264.3,83.28,238,58,221.88,55.23c.89-.65,2.77-1,4.79-1.26-14.26-3.28-27.5,10.15-40.33,25.44,1.76,3.2,2.24,5.43,1.86,8.51,1.76-2.48,1-10,5.55-13.52,1.29,4.12,2.41,8.22,6,9.9-1.78-2.91-3-6-2.29-10,.45,6.3,21,17.54,44.3,29.48.15,14.09-8.79,12.64-13.52,16.75,1.51-3.19,6.39-5.69,2.06-11.2-.87,7.85-7.11,3.7-10.66,4.75-2.5-18.45-33.69-20.23-45.78,13.52-1.2-5.65-1.84-11.76,2.6-21.85,6.92-2.12,11.87-5.77,11.37-13.62-5.34,13.11-15.16,9.38-22.75,14.06,4.41-7.23-1-15.61,4.45-21.54,1-1.09,1.33-4.87.21-6.23-4.24,9.14-15.47,4.53-22.4,8.07,4.56-7.56-2.44-13.19,5.51-23.56C140,71.73,139.24,64.83,129,69.16c3.88-7-3.3-12.92,5.2-22.13-16.65,7.06-16.55.24-24.82.36,2.79-3.51,2.64-9,8.17-12l-.08-3.06Z"/><path class="cls-3" d="M212.83,35.34A55.47,55.47,0,0,1,224.61,35,6.35,6.35,0,0,1,223,39.6a49,49,0,0,0-10.21-4.26Z"/><path class="cls-2" d="M201.14,35c8.87-.67,17.16,5.24,21.9,7.66-12.89,8.51-14.6-5.11-21.9-7.66Z"/><path class="cls-2" d="M228.2,23.69c2.64,1.1,5.77,4.47,9.49,10.57a43.24,43.24,0,0,1,14.16.86c-11,0-18.34,3.69-25.8,6a16.16,16.16,0,0,0,2.5-6.36,6.49,6.49,0,0,0,7,1.66,8.69,8.69,0,0,1-5.15-3c2-3,1.32-6.2-2.24-9.72Z"/><path class="cls-1" d="M238.1,45.15c15.81-4.87,28.54-2.67,35.16,13.48-4.67-5.46-8.85-10.08-14.71-12.11-6-2.1-13.17-1.68-20.45-1.37Z"/><path class="cls-1" d="M225.24,49.85c13.85-4.51,19.95-1.69,25.32,3.54,3.22,3.13,5.89,7.79,10.62,10.4,2.33,1.29,4.45.82,8,.75-22.22,4.78-12-16.37-43.94-14.69Z"/><path class="cls-4" d="M211.71,58.68A7.84,7.84,0,0,1,216.82,65c4.7-2.39,9.17-1.85,13.39,2.15,3-1.12,5.69-.06,8.06,2.82a8.42,8.42,0,0,1,5.92.54A5.8,5.8,0,0,1,247.1,70a5.24,5.24,0,0,1-1.79-2.08c-14.13-3.5-20.62-15.58-33.6-9.26Z"/><path class="cls-1" d="M181.42,51.87c-7.38-4.92-15.44-5-24-1.43-4.89-6.34-8.84-9.64-10.21-4.57a9.63,9.63,0,0,0-4.49-3,1.71,1.71,0,0,0,0,1.21c-3.68-2.29-.83-6.44,3.3-1.49,3-2.37,7.06-2,12.85,4.89,8.78-3.22,16.39-3,22.55,4.4Z"/><path class="cls-1" d="M172.73,58c4.45,6.29-4.94,11.68-10.84,7,5.23-.08,9.31-1.77,10.84-7Z"/><path class="cls-1" d="M180.88,60.92c-3.08-3.37-5-6-19.3-1.84-10.3,3-19.19-5.51-26.92-14-6.3-6.92-11.9-5.37-13.53-10.56a9.74,9.74,0,0,1-.36-1.73c-.67-5.54,9.82-1.7,18.19-6.27-1.23-1.39-2.75-1.91-2.69-3.59,9.53,3.11,20.22-6.24,27.5-.62.25-2.81,1.16-4.89,3.5-5.38-1.71,7,5.79,5.11,11.42,17.27.28.61.94,1.13,1.21,1.81-5.34-3.86-6.09-8.32-10.82-10.26-4.45-1.82-9.92-2.29-16.51-1.29-6.41,1.66-9.44,4.86-15.72,6.52-2.95.78-6,1.06-11.65,1.12-1.91,0-3.82,1.36-1.56,3.46,1.69,1.56,6.09,2.23,10.68,5.61,5.24,3.87,11.5,14,20.23,14.53,5.85.33,14.91-2.24,19.89-1.19,3.74.8,5.57,3.64,6.44,6.41Z"/><path class="cls-1" d="M190.64,50.11c4.56-5.23-.29-11.51-7.26-11.78,1.37,3.92,4.33,4.12,5.68,6.6-3.45-1.85-7.61-2.35-11.28-3.16-4.38-1-5.37-4.78-8.54-5.76.45,2,2,3.43,2.24,5.65-4-3.77-8.95-4-12.72-7.35,0,1,1.35,3,3.31,5.38A19.89,19.89,0,0,0,151,36.19c1,1.05,2.53,1.49,3.58,2.6-7.5-1.76-15.12.58-16.12-5.2a10.88,10.88,0,0,0,7.88,1.89,7.65,7.65,0,0,1-1.61-5.29c3.24,4.26,7.41,3.46,11.11,5.2-.45-2.6-.07-5.08,1.46-6.54a17.94,17.94,0,0,0,9.29,7.25,17.15,17.15,0,0,1,3.69-5.93c2.84,6.23,6.8,10.38,13,10.41a6.24,6.24,0,0,1-1.27-4.52c.11.54.23,1.22.65,1.41,14.28-2.16,20.8,15.25,8,12.64Z"/><path class="cls-3" d="M207.76,61.32c3.71-.49,5.66,1,6.4,3.94a13.58,13.58,0,0,0-4.61,4.39c-2.3-2.21-3.43-4.81-1.79-8.33Z"/><path class="cls-3" d="M218.78,66.74c2.66-1.56,5.57-.83,8.06,1.3a14.52,14.52,0,0,0-4,4.57c-2.38-1.75-4.07-3.64-4.07-5.87Z"/><path class="cls-3" d="M209.25,77.26a3.94,3.94,0,0,1-1.52,4.65,6.28,6.28,0,0,1-3.15-3.47,12.11,12.11,0,0,0,4.67-1.18Z"/><path class="cls-3" d="M216.72,82.6a4.29,4.29,0,0,1,.6,5.08c-3.65-.82-5.33-2.16-5.92-3.78a16.71,16.71,0,0,0,5.32-1.3Z"/><path class="cls-3" d="M228.79,88.93a6.71,6.71,0,0,1-.22,5,10.75,10.75,0,0,1-6.11-2.68,8.73,8.73,0,0,1,6.33-2.28Z"/><path class="cls-3" d="M236.39,92.77c2,1,1.83,3-.09,5.71a6.53,6.53,0,0,1-3.41-2,25.4,25.4,0,0,1,3.5-3.7Z"/><path class="cls-3" d="M239.83,98c-2.18,1.71-.27,3.09,3.62,4.44,3.64-4.26,7.53-8.46,6.86-12-3.66,4.27-7.18,7-10.48,7.61Z"/><path class="cls-3" d="M232.84,69.2a6.48,6.48,0,0,1,4.07,2.38,8,8,0,0,1-2.55,2.1,6.37,6.37,0,0,1-1.52-4.48Z"/><path class="cls-3" d="M245,71.93a13.82,13.82,0,0,1,7.61-.13c-.55,3.68-3.21,5.17-6.45,6A14.07,14.07,0,0,0,245,71.93Z"/><path class="cls-3" d="M258.41,73.1a31.06,31.06,0,0,1,4.71.31c-2.47,7.24-5.27,9-8.16,9.32a19,19,0,0,0,3.45-9.63Z"/><path class="cls-1" d="M195.06,83.29c.85.28,1.78,1.61,2.75,3.56,5.13,2.19,8.66,4.86,12.05,6.42,18.47,8.51,13.2,11.23,24,12.56-1,.75-2.85,1-5.32,1-8.44-6.09-15.13-9.43-24.07-13.88-2.72-1.35-5.12-2.87-8.41-4.72.68-1.84-.68-3.13-1.05-5Z"/></g></g></svg>