<?xml version="1.0" standalone="no"?>
<!DOCTYPE svg PUBLIC "-//W3C//DTD SVG 20010904//EN"
 "http://www.w3.org/TR/2001/REC-SVG-20010904/DTD/svg10.dtd">
<svg version="1.0" xmlns="http://www.w3.org/2000/svg"
 width="1871.000000pt" height="1871.000000pt" viewBox="0 0 1871.000000 1871.000000"
 preserveAspectRatio="xMidYMid meet">
<metadata>
Created by potrace 1.11, written by Peter Selinger 2001-2013
</metadata>
<g transform="translate(0.000000,1871.000000) scale(0.100000,-0.100000)"
fill="#000000" stroke="none">
<path d="M9399 17456 c-306 -156 -611 -306 -623 -306 -2 0 -59 -26 -127 -59
-68 -32 -146 -69 -174 -81 -63 -28 -249 -113 -335 -152 -36 -17 -104 -45 -151
-63 -48 -19 -109 -43 -135 -55 -27 -12 -62 -28 -79 -35 -16 -7 -50 -22 -75
-33 -67 -29 -361 -145 -465 -182 -49 -17 -103 -38 -120 -45 -43 -18 -271 -94
-480 -160 -99 -31 -207 -64 -240 -75 -66 -20 -306 -89 -333 -95 -9 -2 -118
-28 -242 -59 -124 -30 -236 -57 -250 -60 -14 -2 -65 -13 -115 -25 -49 -11
-101 -22 -115 -25 -14 -2 -50 -10 -80 -16 -30 -6 -64 -13 -75 -15 -32 -5 -86
-15 -140 -25 -70 -14 -83 -17 -140 -24 -27 -4 -84 -13 -125 -21 -41 -8 -93
-17 -115 -20 -22 -3 -76 -12 -120 -20 -44 -8 -96 -17 -115 -20 -19 -3 -46 -7
-60 -10 -28 -5 -64 -11 -130 -20 -24 -4 -47 -8 -50 -10 -3 -2 -30 -6 -60 -10
-30 -4 -57 -8 -60 -10 -3 -2 -27 -6 -55 -9 -92 -13 -120 -17 -170 -26 -27 -5
-68 -12 -90 -15 -22 -3 -51 -7 -65 -10 -14 -2 -43 -7 -65 -10 -22 -3 -65 -10
-95 -15 -30 -5 -73 -11 -95 -15 -84 -11 -151 -27 -187 -42 -34 -14 -37 -19
-40 -61 -2 -36 -7 -46 -22 -48 -60 -9 -164 -37 -180 -49 -18 -14 -18 -30 -12
-382 3 -202 9 -440 12 -528 3 -88 6 -191 7 -229 2 -77 10 -69 -83 -81 -78 -10
-194 -33 -224 -45 l-29 -11 7 -387 c4 -213 9 -409 11 -437 1 -27 6 -124 10
-215 4 -91 8 -190 10 -220 2 -30 6 -107 9 -170 4 -63 9 -149 11 -190 2 -41 7
-129 10 -195 4 -66 8 -147 10 -180 2 -33 6 -107 10 -165 3 -58 7 -132 10 -165
2 -33 7 -109 10 -170 3 -60 8 -148 11 -195 3 -47 7 -110 9 -140 6 -94 32 -400
50 -585 2 -27 7 -77 10 -110 3 -33 7 -82 10 -110 5 -57 13 -141 20 -200 2 -22
7 -67 10 -100 16 -155 30 -226 155 -740 29 -115 54 -221 56 -234 8 -38 128
-450 184 -631 106 -340 232 -700 300 -855 5 -11 21 -51 35 -90 15 -38 35 -88
45 -110 10 -22 30 -69 44 -103 15 -35 56 -125 92 -200 35 -76 79 -168 97 -207
38 -84 221 -446 267 -530 31 -55 65 -108 279 -438 42 -64 116 -175 165 -245
49 -70 135 -192 191 -272 188 -269 454 -608 706 -900 26 -30 76 -89 111 -130
131 -156 394 -423 594 -606 54 -50 125 -115 158 -145 68 -62 83 -76 150 -133
27 -22 54 -46 60 -51 6 -6 40 -35 76 -65 35 -30 76 -65 90 -78 31 -28 372
-285 495 -373 50 -35 92 -66 95 -69 29 -32 691 -509 855 -616 111 -72 145 -91
440 -245 197 -102 218 -113 280 -150 84 -49 155 -85 270 -134 60 -25 127 -55
150 -65 49 -22 159 -58 201 -65 19 -3 58 4 100 19 71 24 285 107 339 132 108
48 207 97 250 121 28 16 120 66 205 111 85 46 162 87 170 92 8 5 52 27 97 50
155 77 318 183 654 425 31 22 66 47 79 55 12 8 41 29 64 46 22 17 219 164 437
327 218 163 416 313 441 334 25 21 68 57 96 81 65 55 258 225 358 317 171 156
245 226 374 355 85 85 173 175 196 200 85 94 408 478 584 695 55 68 257 331
312 407 76 104 588 865 588 873 0 3 12 24 27 48 15 23 46 78 69 122 23 44 63
118 88 165 80 149 244 485 311 635 7 17 24 55 38 85 14 30 42 96 62 145 20 50
42 104 50 120 65 145 170 433 279 765 48 144 175 597 255 905 83 320 152 655
176 850 3 28 10 77 15 110 5 33 12 85 15 115 3 30 8 71 10 90 2 19 7 67 10
105 4 39 8 81 10 95 2 14 7 68 10 120 3 52 8 111 10 130 2 19 6 82 10 140 3
58 8 128 10 155 3 28 7 86 10 130 2 44 7 118 10 165 13 196 23 350 30 490 3
52 7 120 10 150 3 30 7 111 10 180 3 69 7 159 10 200 9 143 16 286 20 405 3
66 7 176 10 245 4 115 10 314 20 753 3 124 1 167 -8 168 -7 0 -19 2 -27 4 -25
5 -143 27 -170 31 -14 2 -41 7 -60 11 -19 3 -48 7 -64 9 -16 1 -39 5 -51 8
-19 5 -46 10 -115 21 -17 2 -18 69 -6 425 3 107 9 326 12 485 3 160 7 316 8
347 1 32 0 62 -4 67 -5 9 -152 40 -445 96 -98 18 -248 45 -285 50 -25 3 -67
10 -95 15 -27 5 -68 11 -90 14 -22 3 -49 7 -60 10 -11 2 -42 7 -70 10 -27 4
-75 11 -105 16 -30 5 -73 12 -95 15 -22 3 -51 8 -65 10 -14 3 -41 7 -60 10
-75 13 -366 64 -390 70 -14 3 -41 7 -60 10 -19 3 -46 7 -60 10 -14 2 -83 16
-155 30 -71 14 -141 28 -155 31 -14 2 -38 7 -55 11 -16 4 -34 8 -40 9 -5 1
-40 9 -76 18 -37 8 -78 17 -90 20 -35 6 -158 35 -199 47 -40 11 -436 117 -463
124 -9 2 -79 23 -155 46 -121 37 -235 75 -677 228 -172 60 -292 106 -473 183
-92 39 -216 91 -277 115 -142 58 -225 94 -354 154 -57 27 -104 49 -106 49 -2
0 -49 22 -106 49 -99 46 -145 67 -284 131 -179 82 -244 114 -499 242 -356 178
-330 175 -547 64z"/>
</g>
</svg>
